<svg xmlns="http://www.w3.org/2000/svg" width="64" height="32">
  <rect width="100%" height="100%" rx="4" fill="#F5C518" />
  <path
    d="M8 25h5V7H8zM23.67 7l-1.12 8.4-.7-4.56c-.2-1.47-.39-2.75-.57-3.84H15v18h4.24l.02-11.89L21.04 25h3.02l1.7-12.15.01 12.15H30V7h-6.33ZM32 25V7h7.8c1.77 0 3.2 1.42 3.2 3.18v11.64A3.18 3.18 0 0 1 39.8 25H32Zm5.83-14.76c-.2-.1-.58-.16-1.13-.16V21.9c.73 0 1.18-.13 1.35-.4.17-.27.25-1 .25-2.2V12.3a8.6 8.6 0 0 0-.08-1.57.74.74 0 0 0-.39-.5ZM52.43 11.5h.32A3.2 3.2 0 0 1 56 14.65v7.22A3.2 3.2 0 0 1 52.75 25h-.32c-1.1 0-2.07-.53-2.66-1.33l-.29 1.1H45V7h4.78v5.78a3.39 3.39 0 0 1 2.65-1.27Zm-1.02 8.78v-4.26c0-.7-.05-1.17-.14-1.38-.1-.21-.47-.35-.74-.35-.26 0-.67.11-.75.3v7.22c.1.2.48.32.75.32s.67-.11.75-.32c.08-.21.13-.72.13-1.53Z" />
</svg>